<svg xmlns="http://www.w3.org/2000/svg" width="158.319" height="66.292" viewBox="0 0 158.319 66.292">
  <g id="Group_1656" data-name="Group 1656" transform="translate(-864.17 -7506.135)">
    <path id="Path_8666" data-name="Path 8666" d="M987.444,7559.875c-.859-.8-1.41-1.392-.49-2.25l-.22-.206c-.724.4-1.454.8-2.171,1.212-2.705,1.565-5.453,3.063-8.1,4.728-2.594,1.634-5.064,3.463-7.618,5.162-2.189,1.456-4.436,2.821-6.623,4.275q-3.375,2.244-6.633,4.677c1.158.106,2.028-1.067,3.453-.583a5.82,5.82,0,0,1-.791.7,16.606,16.606,0,0,1-2.508,1.327,2.36,2.36,0,0,1-1.739-.013c-1.056-.581-1.088-1.025-.1-1.764,1.929-1.445,3.906-2.833,5.927-4.146,4.943-3.207,9.894-6.4,14.9-9.516,3.718-2.314,7.521-4.49,11.288-6.724a11.506,11.506,0,0,0,2.147-1.295,15.142,15.142,0,0,0,1.841-2.389c2.509-3.59,4.977-7.208,7.505-10.783,2.649-3.745,5.307-7.487,8.045-11.168s5.581-7.277,8.375-10.913c.38-.493.748-1,1.318-1.756a9.692,9.692,0,0,0-1.926.029c-2.273.554-4.532,1.163-6.785,1.787-.313.088-.547.474-.861.55a3.882,3.882,0,0,1-1.566.1c-.213-.038-.55-.7-.47-.8a2.777,2.777,0,0,1,1.073-.863,29.44,29.44,0,0,1,10.526-2.231c1.581-.062,2.353-.986,3.248-1.956.592-.643,1.219-1.257,1.856-1.858.4-.383.857-.677,1.346-.089.447.537.135.861-.291,1.213-.743.613-1.449,1.272-2.17,1.911l.114.307c1.347.032,2.694.052,4.04.1,2,.075,4,.137,5.993.289a1.551,1.551,0,0,1,1.133.694c.116.255-.2.918-.514,1.125-1.682,1.127-3.386,2.234-5.151,3.226-3.144,1.77-6.332,3.462-9.515,5.163a21.648,21.648,0,0,0-2.214,1.154c1.214,0,2.434.061,3.643-.027a39.891,39.891,0,0,1,10.692.732,16.207,16.207,0,0,1,4.156,1.693c.894.464.934,1.323.316,2.153a10.274,10.274,0,0,1-4.1,2.868c-3.592,1.733-7.164,3.509-10.743,5.266-1.761.866-3.549,1.684-5.279,2.607-3.258,1.735-6.472,3.554-9.728,5.293-1.468.784-3.028,1.4-4.487,2.2-1.736.951-3.408,2.02-5.108,3.037-.33.2-.657.4-1,.571a2.831,2.831,0,0,0-1.884,2.1c-.245,1.108-1.37,2.023-2.151,3.081m3.864-6.4a6.172,6.172,0,0,0,.617-.223c1.358-.713,2.718-1.425,4.069-2.151,3.167-1.706,6.321-3.441,9.5-5.127q5.273-2.8,10.579-5.529c3.509-1.815,7.046-3.578,10.539-5.427a21.876,21.876,0,0,0,3.4-2.215c.9-.722.778-1.194-.284-1.675a21.507,21.507,0,0,0-9.287-1.508c-3.457.04-6.91.425-10.366.634a3.674,3.674,0,0,1-1.545-.159c-.646-.263-.933-.025-1.289.461-1.7,2.318-3.456,4.593-5.145,6.919q-2.843,3.913-5.6,7.888c-1.674,2.418-3.3,4.874-4.929,7.322a3.661,3.661,0,0,0-.261.79m36.371-34.722-.082-.317a3.792,3.792,0,0,0-.757-.176c-2.76-.072-5.521-.085-8.278-.211a2.469,2.469,0,0,0-2.294,1.118c-.995,1.309-2.112,2.523-3.152,3.8-1.314,1.614-2.6,3.25-3.9,4.876,7-1.484,12.653-5.441,18.465-9.088" transform="translate(-9.85 -6.653)" fill="black"/>
    <path id="Path_8667" data-name="Path 8667" d="M879.41,7545.779c-.126.05-.26.154-.379.14a7.459,7.459,0,0,1-4.581-1.773,1.275,1.275,0,0,1-.038-1.877,14.285,14.285,0,0,1,4.677-4.025c2.52-1.436,5.121-2.742,7.748-3.976,2.523-1.185,5.109-2.242,7.692-3.295,2.777-1.132,5.556-2.266,8.382-3.265,2.854-1.01,5.611-2.317,8.657-2.783,1.2-.183,2.31-.832,3.5-1.128,2.582-.648,5.181-1.233,7.783-1.793,3.421-.738,6.836-1.524,10.285-2.112,3.521-.6,7.07-1.091,10.625-1.438,3.592-.352,7.207-.545,10.816-.655a19.925,19.925,0,0,1,4.679.481c1.713.362,2.2,1.7,1.012,2.978a44.358,44.358,0,0,1-4.819,4.376c-2.489,1.993-5.029,3.928-7.639,5.757-4.452,3.119-8.974,6.136-13.464,9.2-.244.166-.467.36-.9.7,1.62-.345,2.98-.607,4.326-.926,3.166-.752,6.33-1.515,9.487-2.309a29.667,29.667,0,0,0,3.382-1.048c.381-.148.647-.612.951-.946a23.115,23.115,0,0,1,1.775-1.933,2.022,2.022,0,0,1,1.322-.407c.278.014.638.413.754.717.055.143-.334.555-.6.7a4.691,4.691,0,0,0-2.5,2.918,1.854,1.854,0,0,1-.788.923,12.391,12.391,0,0,0-3.49,4.157c-.758,1.2-.686,1.242,0,2.847-.473.132-1.173.5-1.331.337-.413-.423-.937-1.193-.795-1.616a20.172,20.172,0,0,1,1.671-3.229c.332-.6.7-1.174,1.052-1.76-.067-.128-.134-.256-.2-.384-1.378.241-2.779.394-4.129.74q-4.941,1.265-9.841,2.687c-1.274.367-2.472,1.024-3.756,1.336a13.046,13.046,0,0,1-3.517.319c-.4-.014-.783-.655-1.172-1.01a10.3,10.3,0,0,1,1.085-.673,68.093,68.093,0,0,0,6.831-3.209c3.524-2.153,6.9-4.558,10.277-6.939,2.575-1.815,5.1-3.714,7.58-5.652,1.983-1.544,3.885-3.192,5.8-4.818a6.016,6.016,0,0,0,1.024-1.165c.645-.936.578-1.341-.5-1.649a12.706,12.706,0,0,0-3.42-.509,102.191,102.191,0,0,0-17.517,1.349q-6.8,1.158-13.527,2.681c-4.408.993-8.821,2.024-13.136,3.347a140.253,140.253,0,0,0-19.405,7.5c-2.746,1.312-5.555,2.514-8.21,3.991-2.433,1.354-5.016,2.556-6.878,4.759-.839.992-.75,1.334.447,1.829.992.41,1.977.836,2.966,1.254-.02.1-.039.19-.059.285" transform="translate(-9.85 -6.653)" fill="black"/>
    <path id="Path_8668" data-name="Path 8668" d="M974.1,7536.2c-1.221.9-2.549,1.89-3.887,2.865-1.726,1.259-3.42,2.572-5.213,3.727a4.544,4.544,0,0,1-2.45.738c-1.44-.047-1.87-1.025-.961-2.129,2-2.431,4.1-4.785,6.166-7.164,1.261-1.452,2.481-2.944,3.812-4.329,2.352-2.444,4.725-4.876,7.187-7.209,2.031-1.926,4.185-3.723,6.325-5.529a6.159,6.159,0,0,1,1.828-1.022,1.878,1.878,0,0,1,1.4-.01c.393.226.583.8.861,1.228-.424.11-.846.233-1.274.33-.553.124-1.231.064-1.646.367a76.37,76.37,0,0,0-6.208,4.832c-2.49,2.259-4.887,4.641-7.144,7.133-3.128,3.452-6.091,7.054-9.115,10.6a5.484,5.484,0,0,0-.469.77l.168.256a13.242,13.242,0,0,0,2.064-.984c2.718-1.913,5.391-3.891,8.088-5.832,1.418-1.022,2.834-2.047,4.3-3,.278-.182.766-.042,1.156-.052-.03.491.124,1.122-.124,1.447-.762,1-1.736,1.831-2.519,2.816-.864,1.085-1.61,2.265-2.406,3.4.068.068.135.136.2.2a5.878,5.878,0,0,1,1.468-.818,11.479,11.479,0,0,1,2.64-.222c.1,0,.4.878.252,1.062a2.2,2.2,0,0,1-1.3.777,4.787,4.787,0,0,0-2.9,1.526,2.06,2.06,0,0,1-1.509.514,1.019,1.019,0,0,1-.83-1.5c.634-1.616,1.355-3.2,2.041-4.793" transform="translate(-9.85 -6.653)" fill="black"/>
    <path id="Path_8669" data-name="Path 8669" d="M939.918,7553.614l-.932-.934c.279-.275.512-.711.841-.8,3.031-.837,6.049-1.77,9.13-2.369,3.744-.726,7.54-1.208,11.326-1.7,3.531-.46,7.085-.747,10.616-1.206,1.863-.243,3.689-.764,5.55-1.026,1.955-.276,3.936-.366,5.9-.589.576-.065,1.124-.386,1.7-.443a6.3,6.3,0,0,1,1.854.131,1.483,1.483,0,0,1,.01,1.022,1.6,1.6,0,0,1-1.624.844,35.071,35.071,0,0,0-5.452.231c-7.1.881-14.2,1.773-21.282,2.8-4.012.583-8,1.379-11.964,2.212a39.337,39.337,0,0,0-4.479,1.526c-.355.122-.73.186-1.193.3" transform="translate(-9.85 -6.653)" fill="black"/>
    <path id="Path_8670" data-name="Path 8670" d="M905.814,7556.314a1.118,1.118,0,0,1-.568-1.83q1.56-1.705,3.2-3.339c2.178-2.173,4.342-4.362,6.583-6.469s4.63-4.1,6.88-6.214c2.307-2.171,4.5-4.469,6.8-6.65,1.524-1.445,3.119-2.823,4.748-4.15,1.153-.941,2.4-1.774,3.643-2.6a1.51,1.51,0,0,1,1.1-.162,1.028,1.028,0,0,1,.644.7.922.922,0,0,1-.588.691c-2.271.387-3.914,1.849-5.545,3.264-2.4,2.084-4.721,4.266-7.042,6.441-3.168,2.969-6.342,5.933-9.444,8.972-2.726,2.671-5.38,5.42-8.006,8.191a4.649,4.649,0,0,0-.83,1.824c-.225.735-.993,1.457-1.567,1.326" transform="translate(-9.85 -6.653)" fill="black"/>
    <path id="Path_8671" data-name="Path 8671" d="M989.028,7539.225c2.066-.787,4.1-1.562,6.145-2.338.083.119.165.239.248.359-.183.285-.3.7-.56.833-1.777.9-3.545,1.838-5.4,2.552-1.464.565-2.453-.611-2.368-2.388-.464-.588-.83-1.049-1.194-1.51a8,8,0,0,1,1.55-.953,7.434,7.434,0,0,0,3.442-2.415,29.725,29.725,0,0,1,4.241-3.726,1.135,1.135,0,0,1,1.7.079,1.284,1.284,0,0,1-.124,1.8,20.923,20.923,0,0,1-6.234,4.7,2.526,2.526,0,0,0-1.45,3" transform="translate(-9.85 -6.653)" fill="black"/>
    <path id="Path_8672" data-name="Path 8672" d="M979.7,7541.058a.878.878,0,0,1-.458-1.375,8.536,8.536,0,0,1,.97-1.5c1.505-1.795,3.027-3.576,4.583-5.325a1.4,1.4,0,0,1,1.015-.421.932.932,0,0,1,.628.682,1.688,1.688,0,0,1-.524.927c-1.217,1.338-2.489,2.626-3.668,4a2.043,2.043,0,0,0-.317,1.327,1.818,1.818,0,0,1-2.229,1.69" transform="translate(-9.85 -6.653)" fill="black"/>
    <path id="Path_8673" data-name="Path 8673" d="M962.421,7527.279c1.192-1.512,2.313-3,3.527-4.4a1.233,1.233,0,0,1,1.189,0c.473.355.1.7-.227,1.087-1.048,1.241-2,2.565-3.023,3.825a1.347,1.347,0,0,1-.881.452c-.141.006-.3-.478-.585-.959" transform="translate(-9.85 -6.653)" fill="black"/>
    <path id="Path_8674" data-name="Path 8674" d="M989.9,7527.249a5.274,5.274,0,0,1-.606-1.7c0-.272.7-.551,1.08-.826a3.944,3.944,0,0,1,.517,1.29,3.543,3.543,0,0,1-.483,1.25l-.508-.01" transform="translate(-9.85 -6.653)" fill="black"/>
    <path id="Path_8675" data-name="Path 8675" d="M959.723,7542.4l3.678-2.108.322-.389a1.643,1.643,0,0,0-.145-.975c-.114-.184-.876-.17-1.2.014-1.306.744-2.54,1.616-3.831,2.391-1.454.87-2.94,1.686-4.442,2.543-.86-2.663,7.845-11.13,11.809-12.875.25.725.64,1.1,1.322.381a16.361,16.361,0,0,0,1.219-1.262c.223-.292.476-.956.394-1.016-.376-.277-.981-.668-1.294-.532a19.524,19.524,0,0,0-3.993,2.1,48.887,48.887,0,0,0-9.2,8.735,9,9,0,0,0-2.215,4.461c-.166,1.371.8,2.2,2.075,1.668a20.4,20.4,0,0,0,2.318-1.239c1.069-.615,2.124-1.25,3.184-1.879Z" transform="translate(-9.85 -6.653)" fill="black"/>
  </g>
</svg>
